<svg xmlns="http://www.w3.org/2000/svg" viewBox="0 0 24 24">
  <defs>
    <linearGradient id="jp-g1" x1="0" x2="1" y1="0" y2="0">
      <stop offset="0%"  stop-color="#ff3b6b"/>
      <stop offset="100%" stop-color="#ff8a3d"/>
    </linearGradient>
    <linearGradient id="jp-g2" x1="0" x2="1" y1="0" y2="0">
      <stop offset="0%"  stop-color="#ffb347"/>
      <stop offset="100%" stop-color="#f9e94f"/>
    </linearGradient>
    <linearGradient id="jp-g3" x1="0" x2="1" y1="0" y2="0">
      <stop offset="0%"  stop-color="#3ddc97"/>
      <stop offset="100%" stop-color="#2ec4b6"/>
    </linearGradient>
    <linearGradient id="jp-g4" x1="0" x2="1" y1="0" y2="0">
      <stop offset="0%"  stop-color="#3aa8ff"/>
      <stop offset="100%" stop-color="#8a5cff"/>
    </linearGradient>
  </defs>
  <path d="M1 7  Q4 1.5 7 7  T13 7  T23 7  L23 8 L1 8 Z" fill="url(#jp-g1)"/>
  <path d="M1 11 Q5 5   9 11 T15 11 T23 11 L23 12 L1 12 Z" fill="url(#jp-g2)"/>
  <path d="M1 15 Q6 9  10 15 T16 15 T23 15 L23 16 L1 16 Z" fill="url(#jp-g3)"/>
  <path d="M1 19 Q7 13 11 19 T18 19 T23 19 L23 20 L1 20 Z" fill="url(#jp-g4)"/>
</svg>
